# xmcd CD database file generated by Grip 2.92
# 
# Track frame offsets:
#       150
#       13665
#       31141
#       50989
#       66851
#       83003
#       97844
#       112499
#       133733
#       150573
# 
# Disc length: 2284 seconds
# 
# Revision: 3
# Processed by: cddbd v1.4b41PL1 Copyright (c) Steve Scherf et al.
# Submitted via: Grip 2.92
# 
DISCID=8208ea0a
DTITLE=Red Beans and Rice - Eat Big
DYEAR=1900
DGENRE=
TTITLE0=Railroad Jungle
TTITLE1=Fear
TTITLE2=What's His Face
TTITLE3=Who's Behind Those Eyes (I's)
TTITLE4=Come and Get It
TTITLE5=Walk the Talk
TTITLE6=Don't Call Me Your Baby
TTITLE7=Bad Storm Comin'
TTITLE8=Don't Build Me Up
TTITLE9=Big Sistuh
EXTD=
EXTT0=
EXTT1=
EXTT2=
EXTT3=
EXTT4=
EXTT5=
EXTT6=
EXTT7=
EXTT8=
EXTT9=
PLAYORDER=
